<?xml version="1.0" encoding="UTF-8"?>
<!-- Generator: Adobe Illustrator 13.0.0, SVG Export Plug-In . SVG Version: 6.00 Build 14948)  -->
<!DOCTYPE svg PUBLIC "-//W3C//DTD SVG 1.1//EN" "http://www.w3.org/Graphics/SVG/1.1/DTD/svg11.dtd">
<svg version="1.1" id="Layer_1" xmlns="http://www.w3.org/2000/svg" xmlns:xlink="http://www.w3.org/1999/xlink" x="0px" y="0px" width="65px" height="65px" viewBox="0 0 65 65" enable-background="new 0 0 65 65" xml:space="preserve">
<g>
	<defs>
		<rect id="SVGID_1_" x="1.629" width="61.813" height="65"/>
	</defs>
	<clipPath id="SVGID_2_">
		<use xlink:href="#SVGID_1_" overflow="visible"/>
	</clipPath>
	<path clip-path="url(#SVGID_2_)" fill="#F96302" d="M43.666,42.912c0.006-0.006,0.012-0.013,0.021-0.019l19.001-19.092   c1.008-1.013,1.008-2.645,0-3.653c-1.008-1.004-2.642-1.009-3.648-0.007l-9.344,9.357c-0.403,0.405-1.064,0.407-1.461,0   c-0.409-0.405-0.406-1.058,0.002-1.465l13.39-13.409c1.008-1.001,1.008-2.64,0.003-3.653c-1.01-1.001-2.645-0.997-3.65-0.005   L47.067,21.897c-0.399,0.403-1.063,0.405-1.461,0.002c-0.401-0.399-0.401-1.06,0-1.466L58.702,7.329   c1.01-1.008,1.01-2.644-0.002-3.649c-1.012-1.011-2.638-1.005-3.649-0.002L41.952,16.782c-0.4,0.409-1.053,0.409-1.461,0.009   c-0.399-0.406-0.403-1.067,0-1.466L51.397,4.41c1.007-1.01,1.001-2.645-0.002-3.652c-1.008-1.008-2.639-1.008-3.648-0.01   L29.621,18.902c-0.398,0.398-1.06,0.393-1.466-0.01c-0.397-0.399-0.397-1.052,0.007-1.458l7.518-7.526   c1.009-1,1.009-2.641-0.005-3.652c-1.003-1.003-2.647-1.003-3.651,0.002L19.228,19.07c-0.07,0.07-0.122,0.125-0.165,0.189   c-6.202,6.7-6.046,17.156,0.464,23.664c6.515,6.51,16.99,6.65,23.676,0.423c0.052-0.033,0.108-0.076,0.171-0.141l0.273-0.271   C43.651,42.933,43.657,42.925,43.666,42.912"/>
	<path clip-path="url(#SVGID_2_)" fill="#1A28A7" d="M30.19,5.561l-3.659,3.662l-4.761-4.75c-1.001-1.014-1.001-2.64,0-3.652   c1.012-1.015,2.644-1.012,3.657-0.002L30.19,5.561z M16.258,1.875c-1.007-0.999-2.649-0.996-3.65,0.004   C11.594,2.887,11.598,4.514,12.6,5.53l8.815,8.811l3.651-3.652L16.258,1.875z M17.956,17.804l2.004-2.009L8.954,4.803   C7.942,3.796,6.306,3.795,5.299,4.806C4.293,5.814,4.293,7.457,5.302,8.461L16.454,19.6c0.386-0.521,0.8-1.025,1.233-1.495   C17.766,17.998,17.862,17.903,17.956,17.804 M12.814,29.11l-1.793-1.792c-1.01-1.01-2.646-1.014-3.65,0   c-1.009,1.005-1.014,2.641-0.002,3.656l6.581,6.565c-0.758-2.008-1.171-4.142-1.218-6.343   C12.723,30.494,12.751,29.802,12.814,29.11 M6.036,12.1c-1.006-0.999-2.645-0.987-3.652,0.008c-1.006,1.01-1.006,2.639-0.005,3.645   l10.838,10.824c0.423-1.83,1.123-3.58,2.077-5.221L6.036,12.1z"/>
	<path clip-path="url(#SVGID_2_)" fill="#1A28A7" d="M25.651,55.532v8.765c0,0.168-0.42,0.463-1.033,0.463   c-1.5,0-2.218-0.602-2.218-2.698l-0.013-8.89c0,0,0.168-0.406,1.185-0.429C24.824,52.706,25.651,53.125,25.651,55.532"/>
	<path clip-path="url(#SVGID_2_)" fill="#1A28A7" d="M36.069,54.865c0,0.763-0.762,1.612-1.109,1.416   c-0.727-0.402-1.314-1.028-3.048-1.156c-1.099-0.084-2.148,0.582-1.813,1.486c0.133,0.356,0.425,0.525,1.898,0.784   c2.825,0.5,4.494,1.709,4.494,3.626c0,1.951-1.53,3.96-4.752,3.979c-3.015,0.019-4.747-0.985-5.075-2.217   c-0.211-0.787,0.652-1.916,1.154-1.577c1.248,0.839,2.561,1.303,3.973,1.303c1.333,0,1.755-0.73,1.714-1.258   c-0.039-0.566-0.833-0.899-2.353-1.157c-3.048-0.515-4.375-1.746-4.375-3.708c0-2.159,1.759-3.792,4.912-3.782   C34.546,52.609,36.069,53.84,36.069,54.865"/>
	<path clip-path="url(#SVGID_2_)" fill="#1A28A7" d="M43.359,61.727c0,0-0.521,0.611-1.495,0.484   c-0.971-0.133-1.011-1.085-1.011-2.048c0,0-0.005-4.221,0.003-4.29h0.621c1.848,0,2.407-0.758,2.407-1.855   c0-0.601-0.271-0.864-0.46-0.864H40.93c-0.085-2.201-0.919-2.596-2.145-2.559c-1.057,0.024-1.243,0.48-1.243,0.48l0.011,9.995   c0,2.676,1.5,3.764,3.212,3.78c2.333,0.028,3.18-1.151,3.18-2.19C43.944,62.134,43.685,61.6,43.359,61.727"/>
	<path clip-path="url(#SVGID_2_)" fill="#1A28A7" d="M49.596,55.101c-0.757,0-1.532,0.137-2.004,0.432   c-0.501,0.318-0.777,0.637-0.996,0.913c-0.125,0.153-0.275,0.38-0.352,0.397c-0.228,0.058-0.787-0.194-1.068-0.49   c-0.201-0.214-0.311-0.502-0.311-0.889c0-0.369,0.099-0.728,0.303-1.072c0.2-0.348,0.505-0.655,0.915-0.932   c0.408-0.271,0.921-0.493,1.539-0.662c0.617-0.17,1.343-0.254,2.177-0.254c1.726,0,3.013,0.411,3.861,1.232   c0.848,0.819,1.271,2.022,1.271,3.614v6.876c0,0.079-0.122,0.26-0.368,0.348c-0.244,0.086-0.519,0.131-0.815,0.131   c-0.489,0-0.899-0.147-1.228-0.444c-0.329-0.298-0.536-0.774-0.623-1.435c-0.39,0.611-0.908,1.094-1.562,1.447   c-0.658,0.352-1.391,0.529-2.212,0.529c-1.145,0-2.041-0.311-2.69-0.94c-0.646-0.626-0.97-1.446-0.97-2.46   c0-1.363,0.569-2.366,1.708-3.003c1.138-0.632,2.904-0.967,5.302-0.999h0.356C51.83,55.879,51.085,55.101,49.596,55.101    M51.83,59.302v-0.005l-0.581,0.023c-1.249,0.034-2.193,0.195-2.823,0.483c-0.634,0.288-0.949,0.758-0.949,1.4   c0,0.433,0.196,0.732,0.503,0.99c0.305,0.258,0.626,0.395,1.225,0.361C50.372,62.492,51.83,60.918,51.83,59.302"/>
	<path clip-path="url(#SVGID_2_)" fill="#1A28A7" d="M18.355,53.794l-2.571,6.936l-2.573-6.936   c-0.752-1.718-3.517-0.921-3.383-0.394l4.125,10.556c0.139,0.357,0.386,0.593,0.738,0.715c0.356,0.122,0.716,0.18,1.087,0.18h0.006   h0.007c0.369,0,0.732-0.058,1.085-0.18c0.354-0.122,0.6-0.357,0.738-0.715L21.744,53.4C21.874,52.873,19.109,52.076,18.355,53.794"/>
</g>
</svg>